<svg xmlns="http://www.w3.org/2000/svg" viewBox="0 0 1500 450"><defs><style>.cls-1{fill:#3d30ed;}</style></defs><g id="Layer_2" data-name="Layer 2"><g id="EVERYTHING"><path d="M393.51,119.21c0-.31,0-.61-.06-.92s0-.51-.05-.76v0c0-.2-.08-.4-.11-.59l-.12-.58c0-.16-.05-.32-.1-.48v0c-.08-.3-.2-.59-.3-.88l0-.08c-.07-.21-.13-.42-.21-.62v0c0-.06-.06-.12-.09-.19-.1-.23-.22-.45-.33-.67v0c-.1-.2-.19-.4-.29-.59h0c-.1-.17-.22-.32-.33-.49l-.32-.48c-.09-.14-.18-.29-.28-.42h0c-.2-.26-.43-.49-.65-.74s-.29-.36-.46-.52h0c-.25-.24-.52-.46-.78-.69s-.32-.29-.5-.43h0c-.13-.1-.28-.18-.42-.28l-.51-.34c-.17-.11-.32-.24-.5-.34L202.94,1.71c-.17-.1-.36-.17-.54-.26l-.56-.28c-.33-.15-.67-.29-1-.41l-.57-.19a12.59,12.59,0,0,0-2.15-.49h-.25l-.26,0L197,0h-1.15l-.6,0-.28,0-.21,0a12.49,12.49,0,0,0-2.16.49l-.56.19c-.35.13-.69.26-1,.42a5.6,5.6,0,0,0-.55.27c-.18.09-.37.17-.55.27L7.06,108c-.32.19-.62.41-.92.62s-.33.2-.48.32l0,0c-.17.13-.32.29-.49.44l-.29.25c-.15.14-.32.27-.46.41l0,0c-.16.17-.31.36-.46.54l-.18.2c-.15.17-.31.33-.44.51l0,0c-.14.19-.26.4-.39.59l-.14.21c-.13.19-.27.37-.38.57l0,0c-.11.2-.2.42-.3.63l-.13.24c-.09.2-.21.4-.3.61v0c-.08.2-.14.42-.22.64s-.07.2-.1.3-.15.41-.21.62a0,0,0,0,0,0,0c-.06.22-.09.45-.14.68s-.06.28-.08.43-.09.34-.11.52v0a6.33,6.33,0,0,0,0,.76c0,.31-.07.61-.07.92L0,330.69v0a13.73,13.73,0,0,0,.11,1.7v0c0,.2.08.4.12.6s.06.37.1.55.06.32.1.47v0c.06.24.16.46.23.69s.18.59.3.87c0,0,0,0,0,0l0,0,.09.19c0,.12.12.24.18.36.14.3.27.61.44.9l0,0c.09.15.2.29.29.44l0,.06c.09.15.18.29.28.43s.2.31.31.45v0c.09.12.2.23.3.34.26.31.51.63.8.92h0c.14.14.3.26.44.39s.53.5.82.73h0c.13.1.28.18.42.28l.51.34c.17.11.32.23.5.34L190.57,448.26a12.91,12.91,0,0,0,6.48,1.74,13.54,13.54,0,0,0,1.68-.11c.23,0,.45-.09.67-.13s.66-.11,1-.2.54-.18.81-.27.53-.16.8-.27.59-.29.88-.43.43-.2.64-.32h0l0,0L386.45,342l.46-.31.5-.34c.15-.11.32-.2.47-.31h0c.28-.22.53-.47.79-.7l.34-.3.09-.08,0,0,0,0a10.4,10.4,0,0,0,.76-.88c.11-.13.23-.24.33-.37l0,0c.1-.13.18-.27.28-.41l.27-.42.05-.08c.1-.15.21-.3.31-.46l0,0c.16-.28.29-.58.43-.87,0-.1.1-.2.14-.3s.09-.16.12-.24l0,0a.08.08,0,0,1,0-.05c.11-.28.19-.56.28-.84s.17-.46.24-.7c0,0,0,0,0-.06s.06-.29.09-.44.08-.36.11-.54.09-.41.12-.62v0a14.71,14.71,0,0,0,.1-1.49c0-.05,0-.1,0-.16h0v-.07l.6-211.44v0h0ZM217.24,39.93l129.67,74.86a5.19,5.19,0,0,1,0,9l-49.06,28.5a5.15,5.15,0,0,1-5.19,0l-80.53-46.49a5.2,5.2,0,0,1-2.59-4.48l-.07-56.88A5.17,5.17,0,0,1,217.24,39.93Zm64.57,160.69-.06,19.4-.15,54-1.48.85-61.94,36a5.18,5.18,0,0,1-7.78-4.49l.2-70.39a5.16,5.16,0,0,1,2.57-4.46L274,196.13A5.18,5.18,0,0,1,281.81,200.62ZM47.19,114.7,175.75,40a5.18,5.18,0,0,1,7.78,4.47l.08,56.88a5.19,5.19,0,0,1-2.58,4.48L101.53,152a5.18,5.18,0,0,1-5.19,0L47.2,123.66A5.18,5.18,0,0,1,47.19,114.7Zm72.42,80.73,62,35.81a5.17,5.17,0,0,1,2.59,4.5l-.2,71.08a5.18,5.18,0,0,1-7.77,4.47l-62-35.81a5.19,5.19,0,0,1-2.59-4.5l.2-71.08A5.18,5.18,0,0,1,119.61,195.43ZM26,299.14l.42-148.54a5.18,5.18,0,0,1,7.77-4.47L83.36,174.5A5.17,5.17,0,0,1,86,179l-.26,91.52A5.15,5.15,0,0,1,83.12,275l-49.3,28.65A5.18,5.18,0,0,1,26,299.14ZM184.17,405.65a5.18,5.18,0,0,1-7.77,4.47L46.6,335.18a5.18,5.18,0,0,1,0-9l49.06-28.51a5.18,5.18,0,0,1,5.19,0l80.9,46.71a5.17,5.17,0,0,1,2.59,4.49Zm15.64-196.89a5.15,5.15,0,0,1-5.19,0l-62-35.81a5.19,5.19,0,0,1,0-9L194,128.28a5.2,5.2,0,0,1,5.19,0l62,35.82a5.18,5.18,0,0,1,0,9ZM346.32,335.28,217.9,409.91a5.18,5.18,0,0,1-7.78-4.5l.16-57a5.16,5.16,0,0,1,2.58-4.46L292,298a5.18,5.18,0,0,1,5.19,0l49.14,28.36A5.19,5.19,0,0,1,346.32,335.28Zm21-133.77-.28,97.86a5.18,5.18,0,0,1-7.77,4.47l-49.13-28.37a5.14,5.14,0,0,1-2.59-4.49l.26-91.52a5.18,5.18,0,0,1,2.57-4.47l49.3-28.64a5.18,5.18,0,0,1,7.78,4.49Z"/><path class="cls-1" d="M721.13,191.84h-41V67.3l-49,124.54h-33.9l-49-122.95v123H508.47V4H563l51.64,126.92L663.66,4h57.47Z"/><path class="cls-1" d="M746.74,98q0-43.73,28.46-70.88T844.46,0q40.77,0,69.12,27.29T941.91,98q0,43.46-28.33,70.61t-69.12,27.16q-40.79,0-69.26-27.16T746.74,98Zm59.71-42.53q-16.28,14.7-16.28,42.26t16.28,42.13a56.65,56.65,0,0,0,75.88,0q16.14-14.57,16.15-42.13T882.33,55.51a56.28,56.28,0,0,0-75.88,0Z"/><path d="M1035.31,197.35H967.52V9.49h68.06q42.63,0,68.46,25.43t25.82,68.63q0,43.19-25.82,68.49T1035.31,197.35Zm-25.95-39.48h24.37q23,0,37.73-13.78t14.7-40.54q0-27-14.7-40.81T1033.73,49h-24.37Z"/><path d="M1144.42,161.05q0-16.7,10.86-26.9t28.07-12.85l31-4.77q9.53-1.32,9.53-9a12.56,12.56,0,0,0-5.16-10.2q-5.18-4.09-14.17-4.1-10.07,0-16,5.69a20.15,20.15,0,0,0-6.49,13.65l-35-7.16q1.32-16.43,16.29-30.07t41.44-13.65q29.92,0,44.1,14.31t14.17,36.57V177a108.15,108.15,0,0,0,1.58,20.4h-36.28a64.61,64.61,0,0,1-1.32-14.84q-11.38,18.56-37.08,18.55-20.92,0-33.23-11.79T1144.42,161.05Zm55.35,10.86q10.34,0,17.22-6.09t6.88-20.14v-5.83l-24.89,4q-14.84,2.38-14.83,14.58a13.2,13.2,0,0,0,3.84,9.54C1190.54,170.59,1194.48,171.91,1199.77,171.91Z"/><path d="M1339.25,27.24V65.66h25.69V100.9h-25.69v49.28q0,13.78,14.57,13.78a48.33,48.33,0,0,0,10.59-1.32V196q-7.41,3.71-20.92,3.71-20.4,0-32.18-11.39t-11.78-31V100.9h-23.31V65.66h6.62q10.07,0,15.23-6t5.17-15.5v-17Z"/><path d="M1379.77,161.05q0-16.7,10.86-26.9t28.07-12.85l31-4.77q9.54-1.32,9.54-9a12.57,12.57,0,0,0-5.17-10.2q-5.16-4.09-14.17-4.1-10.07,0-16,5.69a20.23,20.23,0,0,0-6.49,13.65l-34.95-7.16q1.32-16.43,16.28-30.07t41.45-13.65q29.92,0,44.09,14.31t14.17,36.57V177a107.21,107.21,0,0,0,1.59,20.4h-36.28a64,64,0,0,1-1.33-14.84q-11.39,18.56-37.07,18.55-20.92,0-33.24-11.79T1379.77,161.05Zm55.35,10.86q10.32,0,17.21-6.09t6.89-20.14v-5.83l-24.9,4q-14.83,2.38-14.83,14.58a13.24,13.24,0,0,0,3.84,9.54Q1427.17,171.92,1435.12,171.91Z"/><path d="M577.78,408q-32,0-54.91-22.11T500,326.2Q500,301,511.49,282t29-28.18a79,79,0,0,1,37.34-9.18q26.51,0,44.74,13.38t24.2,36.36l-20.11,7.08q-4.43-17.69-17-27.31t-31.82-9.61a53.76,53.76,0,0,0-39.33,16.25Q522.08,297,522.1,326.2t16.35,45.54a53.59,53.59,0,0,0,39.33,16.36q19.22,0,32-10.28t17.89-27.3l19.23,7.07q-6.42,22.77-24.64,36.59T577.78,408Z"/><path d="M676.59,311.05q15.36-16,39-16t39,16q15.35,16,15.35,40.35,0,24.54-15.24,40.57t-39.11,16q-23.87,0-39.11-16T661.23,351.4Q661.23,327.09,676.59,311.05Zm15.47,68.32a32.55,32.55,0,0,0,47.06,0q9.61-10.06,9.61-28,0-17.68-9.61-27.74a32.55,32.55,0,0,0-47.06,0q-9.62,10.05-9.62,27.74Q682.44,369.31,692.06,379.37Z"/><path d="M811.53,343.22v61.46H790.76V298.34h20.32V313.6q10.6-18.35,32.71-18.35,18.33,0,28.17,11.71t9.83,30.29v67.43H861V340.79Q861,314,836.27,314q-11.71,0-18.23,8.29T811.53,343.22Z"/><path d="M899.49,377.05l18.78-6.64a22.13,22.13,0,0,0,7.51,14.26q6.4,5.64,17.24,5.64,8.38,0,13.26-4.09a12.7,12.7,0,0,0,4.86-10.06q0-10.61-13.7-13.71l-18.12-4q-12.37-2.66-19.45-10.62a27.94,27.94,0,0,1-7.07-19.23q0-13.71,11.16-23.65a38.62,38.62,0,0,1,26.63-10,51.29,51.29,0,0,1,18.11,3,31.18,31.18,0,0,1,12.38,7.85,45.91,45.91,0,0,1,6.63,9.06,38.86,38.86,0,0,1,3.31,8.63l-18.34,6.85a22.27,22.27,0,0,0-1.54-5.2,28.91,28.91,0,0,0-3.43-5.63,16,16,0,0,0-6.74-5,26.46,26.46,0,0,0-10.38-1.88q-7.74,0-12.71,4.2t-5,9.95q0,10.17,12.15,12.82l17.24,3.76q14.13,3.1,21.76,11.39a28.8,28.8,0,0,1,7.63,20.23q0,12.6-10.28,22.77T942.8,408q-19.68,0-30.72-9.84T899.49,377.05Z"/><path d="M1072.87,391.86a27.25,27.25,0,0,1-12.81,12.05A42.84,42.84,0,0,1,1041.5,408q-18.12,0-29-12.05t-10.83-30.62v-67h20.77v63.89q0,11.94,5.86,19.68t18.23,7.74q12.38,0,18.78-7.41t6.41-19.79V298.34h20.77V385a166,166,0,0,0,1.1,19.68h-19.88A74.38,74.38,0,0,1,1072.87,391.86Z"/><path d="M1141,404.68h-20.77V244.62H1141Z"/><path d="M1197.91,264.74v33.6h23v18.79h-23V372.4q0,7.52,3.43,11.06t11.37,3.53a33.89,33.89,0,0,0,8.18-.88V403.8q-5.31,2-14.14,2-13.71,0-21.66-8t-7.95-22.33V317.13h-20.33V298.34h5.75q8.16,0,12.26-4.53t4.09-11.83V264.74Z"/><path d="M1238.94,268.61a14.32,14.32,0,0,1-4.31-10.5,14.67,14.67,0,0,1,4.31-10.61,14.1,14.1,0,0,1,10.5-4.43,14.63,14.63,0,0,1,10.6,4.32,14.34,14.34,0,0,1,4.42,10.72,14.12,14.12,0,0,1-4.42,10.5,14.66,14.66,0,0,1-10.6,4.31A14.29,14.29,0,0,1,1238.94,268.61Zm20.88,136.07h-20.55V298.34h20.55Z"/><path d="M1308.3,343.22v61.46h-20.77V298.34h20.33V313.6q10.61-18.35,32.7-18.35,18.33,0,28.17,11.71t9.83,30.29v67.43h-20.77V340.79q0-26.75-24.74-26.75-11.71,0-18.23,8.29T1308.3,343.22Z"/><path d="M1397.7,410.43l20.1-4.64a28.48,28.48,0,0,0,9.06,18.68q8,7.39,19.89,7.4,32.48,0,32.48-34.49V382.13a30.67,30.67,0,0,1-12.48,12.6,39.56,39.56,0,0,1-20,4.87q-21.21,0-35-14.49t-13.81-37q0-21.88,13.7-36.8t35.13-14.93q24.3,0,32.7,16.81V298.34H1500v98.38a68.4,68.4,0,0,1-2.76,19.79,52.09,52.09,0,0,1-8.73,16.91q-6,7.74-16.68,12.16T1446.75,450q-19.66,0-33.36-11.16A41.55,41.55,0,0,1,1397.7,410.43Zm52.14-28.3q13.48,0,21.88-9.4t8.39-24.65q0-15.25-8.39-24.65T1449.84,314q-13.69,0-22.2,9.28t-8.51,24.76q0,15.71,8.29,24.88T1449.84,382.13Z"/></g></g></svg>