<?xml version="1.0" encoding="utf-8"?>
<!-- Generator: Adobe Illustrator 25.4.1, SVG Export Plug-In . SVG Version: 6.00 Build 0)  -->
<svg version="1.1" id="Layer_1" xmlns="http://www.w3.org/2000/svg" xmlns:xlink="http://www.w3.org/1999/xlink" x="0px" y="0px"
	 viewBox="0 0 1500 450" style="enable-background:new 0 0 1500 450;" xml:space="preserve">
<style type="text/css">
	.st0{fill:#FFFFFF;}
	.st1{fill:#3D30ED;}
</style>
<path class="st0" d="M393.5,119.2c0-0.3,0-0.6-0.1-0.9s0-0.5,0-0.8l0,0c0-0.2-0.1-0.4-0.1-0.6l-0.1-0.6c0-0.2,0-0.3-0.1-0.5l0,0
	c-0.1-0.3-0.2-0.6-0.3-0.9v-0.1c-0.1-0.2-0.1-0.4-0.2-0.6l0,0c0-0.1-0.1-0.1-0.1-0.2c-0.1-0.2-0.2-0.4-0.3-0.7l0,0
	c-0.1-0.2-0.2-0.4-0.3-0.6l0,0c-0.1-0.2-0.2-0.3-0.3-0.5l-0.3-0.5c-0.1-0.1-0.2-0.3-0.3-0.4l0,0c-0.2-0.3-0.4-0.5-0.6-0.7
	s-0.3-0.4-0.5-0.5l0,0c-0.2-0.2-0.5-0.5-0.8-0.7s-0.3-0.3-0.5-0.4l0,0c-0.1-0.1-0.3-0.2-0.4-0.3l-0.5-0.3c-0.2-0.1-0.3-0.2-0.5-0.3
	L202.9,1.7c-0.2-0.1-0.4-0.2-0.5-0.3l-0.6-0.3c-0.3-0.1-0.7-0.3-1-0.4l-0.6-0.2c-0.7-0.2-1.4-0.4-2.1-0.5h-0.2h-0.3L197,0h-1.1h-0.6
	H195h-0.2c-0.7,0.1-1.5,0.3-2.2,0.5L192,0.7c-0.4,0.1-0.7,0.3-1,0.4c-0.2,0.1-0.4,0.2-0.6,0.3c-0.2,0.1-0.4,0.2-0.6,0.3L7.1,108
	c-0.3,0.2-0.6,0.4-0.9,0.6s-0.3,0.2-0.5,0.3l0,0c-0.2,0.1-0.3,0.3-0.5,0.4l-0.3,0.2c-0.2,0.1-0.3,0.3-0.5,0.4l0,0
	c-0.2,0.2-0.3,0.4-0.5,0.5l-0.2,0.2c-0.2,0.2-0.3,0.3-0.4,0.5l0,0c-0.1,0.2-0.3,0.4-0.4,0.6l-0.1,0.2c-0.1,0.2-0.3,0.4-0.4,0.6l0,0
	c-0.1,0.2-0.2,0.4-0.3,0.6L2,113.5c-0.1,0.2-0.2,0.4-0.3,0.6l0,0c-0.1,0.2-0.1,0.4-0.2,0.6s-0.1,0.2-0.1,0.3s-0.1,0.4-0.2,0.6l0,0
	c-0.1,0.2-0.1,0.4-0.1,0.7s-0.1,0.3-0.1,0.4s-0.1,0.3-0.1,0.5l0,0c0,0.3,0,0.5,0,0.8c0,0.3-0.1,0.6-0.1,0.9L0,330.7l0,0
	c0,0.6,0,1.1,0.1,1.7l0,0c0,0.2,0.1,0.4,0.1,0.6s0.1,0.4,0.1,0.5s0.1,0.3,0.1,0.5l0,0c0.1,0.2,0.2,0.5,0.2,0.7s0.2,0.6,0.3,0.9l0,0
	l0,0l0.1,0.2c0,0.1,0.1,0.2,0.2,0.4c0.1,0.3,0.3,0.6,0.4,0.9l0,0c0.1,0.1,0.2,0.3,0.3,0.4v0.1c0.1,0.1,0.2,0.3,0.3,0.4
	s0.2,0.3,0.3,0.5l0,0c0.1,0.1,0.2,0.2,0.3,0.3c0.3,0.3,0.5,0.6,0.8,0.9l0,0c0.1,0.1,0.3,0.3,0.4,0.4s0.5,0.5,0.8,0.7l0,0
	c0.1,0.1,0.3,0.2,0.4,0.3l0.5,0.3c0.2,0.1,0.3,0.2,0.5,0.3l184.2,106.5c2,1.1,4.2,1.7,6.5,1.7c0.6,0,1.1,0,1.7-0.1
	c0.2,0,0.4-0.1,0.7-0.1s0.7-0.1,1-0.2s0.5-0.2,0.8-0.3s0.5-0.2,0.8-0.3s0.6-0.3,0.9-0.4s0.4-0.2,0.6-0.3l0,0l0,0L386.5,342l0.5-0.3
	l0.5-0.3c0.1-0.1,0.3-0.2,0.5-0.3l0,0c0.3-0.2,0.5-0.5,0.8-0.7l0.3-0.3l0.1-0.1l0,0l0,0c0.3-0.3,0.5-0.6,0.8-0.9
	c0.1-0.1,0.2-0.2,0.3-0.4l0,0c0.1-0.1,0.2-0.3,0.3-0.4l0.3-0.4l0-0.1c0.1-0.1,0.2-0.3,0.3-0.5l0,0c0.2-0.3,0.3-0.6,0.4-0.9
	c0-0.1,0.1-0.2,0.1-0.3s0.1-0.2,0.1-0.2l0,0c0,0,0,0,0,0c0.1-0.3,0.2-0.6,0.3-0.8s0.2-0.5,0.2-0.7c0,0,0,0,0-0.1s0.1-0.3,0.1-0.4
	s0.1-0.4,0.1-0.5s0.1-0.4,0.1-0.6l0,0c0.1-0.5,0.1-1,0.1-1.5c0,0,0-0.1,0-0.2l0,0V331l0.6-211.4l0,0l0,0L393.5,119.2z M217.2,39.9
	l129.7,74.9c2.5,1.4,3.3,4.6,1.9,7.1c-0.5,0.8-1.1,1.5-1.9,1.9l-49.1,28.5c-1.6,0.9-3.6,0.9-5.2,0l-80.5-46.5
	c-1.6-0.9-2.6-2.6-2.6-4.5l-0.1-56.9c0-2.9,2.3-5.2,5.1-5.2C215.5,39.2,216.4,39.5,217.2,39.9z M281.8,200.6l-0.1,19.4l-0.1,54
	l-1.5,0.9l-61.9,36c-2.5,1.4-5.6,0.6-7.1-1.9c-0.5-0.8-0.7-1.7-0.7-2.6l0.2-70.4c0-1.8,1-3.5,2.6-4.5l60.8-35.4
	c2.5-1.5,5.6-0.6,7.1,1.8C281.6,198.8,281.8,199.7,281.8,200.6z M47.2,114.7L175.8,40c2.5-1.4,5.6-0.6,7.1,1.9
	c0.5,0.8,0.7,1.7,0.7,2.6l0.1,56.9c0,1.8-1,3.6-2.6,4.5L101.5,152c-1.6,0.9-3.6,0.9-5.2,0l-49.1-28.3c-2.5-1.4-3.3-4.6-1.9-7.1
	C45.8,115.8,46.4,115.2,47.2,114.7z M119.6,195.4l62,35.8c1.6,0.9,2.6,2.6,2.6,4.5l-0.2,71.1c0,2.9-2.3,5.2-5.2,5.2
	c-0.9,0-1.8-0.2-2.6-0.7l-62-35.8c-1.6-0.9-2.6-2.6-2.6-4.5l0.2-71.1c0-2.9,2.3-5.2,5.2-5.2C117.9,194.7,118.8,195,119.6,195.4z
	 M26,299.1l0.4-148.5c0-2.9,2.3-5.2,5.2-5.2c0.9,0,1.8,0.2,2.6,0.7l49.2,28.4c1.6,0.9,2.6,2.6,2.6,4.5l-0.3,91.5
	c0,1.9-1,3.6-2.6,4.5l-49.3,28.6c-2.5,1.5-5.6,0.6-7.1-1.8C26.2,301,26,300.1,26,299.1z M184.2,405.6c0,2.9-2.3,5.2-5.2,5.2
	c-0.9,0-1.8-0.2-2.6-0.7L46.6,335.2c-2.5-1.4-3.4-4.6-1.9-7.1c0.5-0.8,1.1-1.5,1.9-1.9l49.1-28.5c1.6-0.9,3.6-0.9,5.2,0l80.9,46.7
	c1.6,0.9,2.6,2.6,2.6,4.5L184.2,405.6z M199.8,208.8c-1.6,0.9-3.6,0.9-5.2,0l-62-35.8c-2.5-1.4-3.3-4.6-1.9-7.1
	c0.5-0.8,1.1-1.5,1.9-1.9l61.4-35.7c1.6-0.9,3.6-0.9,5.2,0l62,35.8c2.5,1.4,3.4,4.6,1.9,7.1c-0.5,0.8-1.1,1.5-1.9,1.9L199.8,208.8z
	 M346.3,335.3l-128.4,74.6c-2.5,1.4-5.6,0.6-7.1-1.9c-0.5-0.8-0.7-1.7-0.7-2.6l0.2-57c0-1.8,1-3.5,2.6-4.5l79.1-46
	c1.6-0.9,3.6-0.9,5.2,0l49.1,28.4c2.5,1.5,3.3,4.7,1.8,7.1C347.7,334.2,347.1,334.8,346.3,335.3z M367.3,201.5l-0.3,97.9
	c0,2.9-2.3,5.2-5.2,5.2c-0.9,0-1.8-0.2-2.6-0.7l-49.1-28.4c-1.6-0.9-2.6-2.6-2.6-4.5l0.3-91.5c0-1.8,1-3.5,2.6-4.5l49.3-28.6
	c2.5-1.4,5.6-0.6,7.1,1.9c0.5,0.8,0.7,1.7,0.7,2.6L367.3,201.5z"/>
<g>
	<path class="st1" d="M721.1,191.8h-41V67.3l-49,124.5h-33.9l-49-122.9v123h-39.8V4H563l51.6,126.9L663.7,4h57.5V191.8z"/>
	<path class="st1" d="M746.7,98c0-29.2,9.5-52.8,28.5-70.9C794.2,9,817.3,0,844.5,0c27.2,0,50.2,9.1,69.1,27.3
		c18.9,18.2,28.3,41.8,28.3,70.7c0,29-9.4,52.5-28.3,70.6s-41.9,27.2-69.1,27.2c-27.2,0-50.3-9.1-69.3-27.2S746.7,127,746.7,98z
		 M806.5,55.5c-10.9,9.8-16.3,23.9-16.3,42.3s5.4,32.4,16.3,42.1c21.6,19.4,54.3,19.4,75.9,0c10.8-9.7,16.1-23.8,16.2-42.1
		c0-18.4-5.4-32.4-16.2-42.2C860.8,35.9,827.9,35.9,806.5,55.5L806.5,55.5z"/>
</g>
<g>
	<path class="st0" d="M1035.3,197.4h-67.8V9.5h68.1c28.4,0,51.2,8.5,68.5,25.4s25.8,39.8,25.8,68.6c0,28.8-8.6,51.6-25.8,68.5
		S1063.9,197.3,1035.3,197.4z M1009.4,157.9h24.4c15.3,0,27.9-4.6,37.7-13.8c9.8-9.2,14.7-22.7,14.7-40.5c0-18-4.9-31.6-14.7-40.8
		c-9.8-9.2-22.4-13.8-37.7-13.7h-24.4L1009.4,157.9z"/>
	<path class="st0" d="M1144.4,161.1c0-11.1,3.6-20.1,10.9-26.9c7.2-6.8,16.6-11.1,28.1-12.8l31-4.8c6.4-0.9,9.5-3.9,9.5-9
		c0-4-1.9-7.8-5.2-10.2c-3.5-2.7-8.2-4.1-14.2-4.1c-6.7,0-12,1.9-16,5.7c-3.9,3.5-6.2,8.4-6.5,13.7l-35-7.2c0.9-11,6.3-21,16.3-30.1
		c10-9.1,23.8-13.6,41.4-13.7c19.9,0,34.6,4.8,44.1,14.3s14.2,21.7,14.2,36.6V177c-0.1,6.8,0.4,13.7,1.6,20.4h-36.3
		c-1-4.9-1.5-9.9-1.3-14.8c-7.6,12.4-19.9,18.6-37.1,18.6c-13.9,0-25-3.9-33.2-11.8S1144.4,172,1144.4,161.1z M1199.8,171.9
		c6.9,0,12.6-2,17.2-6.1s6.9-10.8,6.9-20.1v-5.8l-24.9,4c-9.9,1.6-14.8,6.4-14.8,14.6c-0.1,3.6,1.3,7,3.8,9.5
		C1190.5,170.6,1194.5,171.9,1199.8,171.9z"/>
	<path class="st0" d="M1339.2,27.2v38.4h25.7v35.2h-25.7v49.3c0,9.2,4.9,13.8,14.6,13.8c3.6,0,7.1-0.5,10.6-1.3V196
		c-4.9,2.5-11.9,3.7-20.9,3.7c-13.6,0-24.3-3.8-32.2-11.4s-11.8-17.9-11.8-31v-56.4h-23.3V65.7h6.6c6.7,0,11.8-2,15.2-6
		c3.4-4,5.2-9.2,5.2-15.5v-17L1339.2,27.2z"/>
	<path class="st0" d="M1379.8,161.1c0-11.1,3.6-20.1,10.9-26.9c7.2-6.8,16.6-11.1,28.1-12.8l31-4.8c6.4-0.9,9.5-3.9,9.5-9
		c0-4-1.9-7.8-5.2-10.2c-3.4-2.7-8.2-4.1-14.2-4.1c-6.7,0-12,1.9-16,5.7c-3.8,3.5-6.2,8.4-6.5,13.7l-34.9-7.2
		c0.9-11,6.3-21,16.3-30.1s23.8-13.6,41.4-13.7c19.9,0,34.6,4.8,44.1,14.3c9.4,9.5,14.2,21.7,14.2,36.6V177
		c-0.1,6.8,0.4,13.7,1.6,20.4h-36.3c-1-4.9-1.5-9.9-1.3-14.8c-7.6,12.4-19.9,18.6-37.1,18.6c-13.9,0-25-3.9-33.2-11.8
		C1383.9,181.5,1379.8,172,1379.8,161.1z M1435.1,171.9c6.9,0,12.6-2,17.2-6.1c4.6-4.1,6.9-10.8,6.9-20.1v-5.8l-24.9,4
		c-9.9,1.6-14.8,6.4-14.8,14.6c-0.1,3.6,1.3,7,3.8,9.5C1425.9,170.6,1429.8,171.9,1435.1,171.9z"/>
</g>
<g>
	<path class="st0" d="M577.8,408c-21.3,0-39.6-7.4-54.9-22.1c-15.3-14.7-22.9-34.6-22.9-59.7c0-16.8,3.8-31.5,11.5-44.2
		c7.7-12.7,17.3-22.1,29-28.2c11.5-6.1,24.3-9.2,37.3-9.2c17.7,0,32.6,4.5,44.7,13.4c12.2,8.9,20.2,21,24.2,36.4l-20.1,7.1
		c-3-11.8-8.6-20.9-17-27.3s-19-9.6-31.8-9.6c-14.8-0.2-29,5.7-39.3,16.2c-11,10.8-16.4,25.9-16.4,45.4c0,19.5,5.5,34.6,16.3,45.5
		c10.3,10.7,24.5,16.6,39.3,16.4c12.8,0,23.5-3.4,32-10.3s14.5-16,17.9-27.3l19.2,7.1c-4.3,15.2-12.5,27.4-24.6,36.6
		C610.1,403.4,595.3,408,577.8,408z"/>
	<path class="st0" d="M676.6,311c10.2-10.7,23.2-16,39-16s28.8,5.3,39,16c10.2,10.7,15.3,24.1,15.3,40.4c0,16.4-5.1,29.9-15.2,40.6
		c-10.2,10.7-23.2,16-39.1,16c-15.9,0-28.9-5.3-39.1-16c-10.2-10.7-15.2-24.2-15.3-40.6C661.2,335.2,666.4,321.7,676.6,311z
		 M692.1,379.4c12.4,13,33,13.5,46,1c0.4-0.3,0.7-0.7,1-1c6.4-6.7,9.6-16,9.6-28c0-11.8-3.2-21-9.6-27.7c-12.4-13-33-13.5-46-1
		c-0.4,0.3-0.7,0.7-1,1c-6.4,6.7-9.6,15.9-9.6,27.7C682.4,363.3,685.6,372.7,692.1,379.4z"/>
	<path class="st0" d="M811.5,343.2v61.5h-20.8V298.3h20.3v15.3c7.1-12.2,18-18.4,32.7-18.4c12.2,0,21.6,3.9,28.2,11.7
		c6.6,7.8,9.8,17.9,9.8,30.3v67.4H861v-63.9c0-17.9-8.2-26.8-24.7-26.8c-7.8,0-13.9,2.8-18.2,8.3S811.5,334.8,811.5,343.2z"/>
	<path class="st0" d="M899.5,377l18.8-6.6c0.6,5.5,3.3,10.6,7.5,14.3c4.3,3.8,10,5.6,17.2,5.6c5.6,0,10-1.4,13.3-4.1
		c3.1-2.4,4.9-6.1,4.9-10.1c0-7.1-4.6-11.6-13.7-13.7l-18.1-4c-8.2-1.8-14.7-5.3-19.5-10.6c-4.7-5.3-7.2-12.2-7.1-19.2
		c0-9.1,3.7-17,11.2-23.6c7.3-6.6,16.8-10.2,26.6-10c6.2-0.1,12.3,0.9,18.1,3c4.7,1.6,8.9,4.3,12.4,7.9c2.6,2.7,4.8,5.8,6.6,9.1
		c1.4,2.7,2.6,5.6,3.3,8.6l-18.3,6.9c-0.3-1.8-0.8-3.5-1.5-5.2c-0.9-2-2.1-3.9-3.4-5.6c-1.8-2.2-4.1-4-6.7-5
		c-3.3-1.3-6.8-2-10.4-1.9c-5.2,0-9.4,1.4-12.7,4.2s-5,6.1-5,10c0,6.8,4,11.1,12.2,12.8l17.2,3.8c9.4,2.1,16.7,5.9,21.8,11.4
		c5.1,5.5,7.8,12.8,7.6,20.2c0,8.4-3.4,16-10.3,22.8c-6.9,6.8-16.4,10.2-28.6,10.2c-13.1,0-23.4-3.3-30.7-9.8S900.5,384.6,899.5,377
		z"/>
	<path class="st0" d="M1072.9,391.9c-2.8,5.3-7.3,9.6-12.8,12c-5.8,2.7-12.1,4.1-18.6,4.1c-12.1,0-21.7-4-29-12
		c-7.3-8-10.9-18.2-10.8-30.6v-67h20.8v63.9c0,8,2,14.5,5.9,19.7c3.9,5.2,10,7.7,18.2,7.7c8.3,0,14.5-2.5,18.8-7.4
		s6.4-11.5,6.4-19.8v-64.1h20.8V385c0,6.6,0.3,13.1,1.1,19.7h-19.9C1073.1,400.4,1072.8,396.1,1072.9,391.9z"/>
	<path class="st0" d="M1141,404.7h-20.8V244.6h20.8V404.7z"/>
	<path class="st0" d="M1197.9,264.7v33.6h23v18.8h-23v55.3c0,5,1.1,8.7,3.4,11.1c2.3,2.4,6.1,3.5,11.4,3.5c2.8,0,5.5-0.3,8.2-0.9
		v17.7c-3.5,1.3-8.3,2-14.1,2c-9.1,0-16.4-2.7-21.7-8c-5.3-5.3-8-12.8-7.9-22.3v-58.3h-20.3v-18.8h5.8c5.4,0,9.5-1.5,12.3-4.5
		c2.7-3,4.1-7,4.1-11.8v-17.2H1197.9z"/>
	<path class="st0" d="M1238.9,268.6c-2.8-2.8-4.4-6.6-4.3-10.5c-0.1-4,1.5-7.8,4.3-10.6c2.7-2.9,6.5-4.5,10.5-4.4
		c4-0.1,7.8,1.5,10.6,4.3c2.9,2.8,4.5,6.7,4.4,10.7c0.1,4-1.5,7.8-4.4,10.5c-2.8,2.8-6.6,4.4-10.6,4.3
		C1245.5,273,1241.7,271.4,1238.9,268.6z M1259.8,404.7h-20.6V298.3h20.6V404.7z"/>
	<path class="st0" d="M1308.3,343.2v61.5h-20.8V298.3h20.3v15.3c7.1-12.2,18-18.4,32.7-18.4c12.2,0,21.6,3.9,28.2,11.7
		c6.6,7.8,9.8,17.9,9.8,30.3v67.4h-20.8v-63.9c0-17.8-8.2-26.8-24.7-26.8c-7.8,0-13.9,2.8-18.2,8.3S1308.3,334.8,1308.3,343.2z"/>
	<path class="st0" d="M1397.7,410.4l20.1-4.6c0.6,7.1,3.8,13.8,9.1,18.7c5.3,4.9,12,7.4,19.9,7.4c21.7,0,32.5-11.5,32.5-34.5v-15.2
		c-2.8,5.3-7.2,9.7-12.5,12.6c-6.1,3.4-13,5-20,4.9c-14.1,0-25.8-4.8-35-14.5c-9.2-9.7-13.8-22-13.8-37c0-14.6,4.6-26.9,13.7-36.8
		c9.1-9.9,20.8-14.9,35.1-14.9c16.2,0,27.1,5.6,32.7,16.8v-14.9h20.5v98.4c0.1,6.7-0.9,13.4-2.8,19.8c-1.8,6.1-4.8,11.9-8.7,16.9
		c-4,5.2-9.6,9.2-16.7,12.2c-7.1,2.9-15.5,4.4-25.1,4.4c-13.1,0-24.2-3.7-33.4-11.2C1404.5,431.9,1398.9,421.6,1397.7,410.4z
		 M1449.8,382.1c9,0,16.3-3.1,21.9-9.4s8.4-14.5,8.4-24.6c0-10.2-2.8-18.4-8.4-24.6s-12.9-9.4-21.9-9.4c-9.1,0-16.5,3.1-22.2,9.3
		c-5.7,6.2-8.5,14.4-8.5,24.8c0,10.5,2.8,18.8,8.3,24.9C1432.9,379,1440.4,382.1,1449.8,382.1z"/>
</g>
</svg>
